<svg width="35" height="35" viewBox="0 0 35 35" fill="none" xmlns="http://www.w3.org/2000/svg">
<path fill-rule="evenodd" clip-rule="evenodd" d="M17.4988 4.375C10.2512 4.375 4.375 10.2512 4.375 17.5004C4.375 23.2993 8.13536 28.2183 13.3509 29.9546C14.0075 30.0747 14.2469 29.6694 14.2469 29.3213C14.2469 29.0103 14.2356 28.1844 14.2291 27.0894C10.5783 27.8823 9.80806 25.3297 9.80806 25.3297C9.21101 23.8141 8.35049 23.4105 8.35049 23.4105C7.15881 22.5959 8.44073 22.612 8.44073 22.612C9.75811 22.7054 10.451 23.9648 10.451 23.9648C11.6218 25.9703 13.5233 25.391 14.271 25.0558C14.3903 24.2073 14.7287 23.6288 15.1041 23.3009C12.1898 22.9697 9.12561 21.8433 9.12561 16.8139C9.12561 15.3813 9.63725 14.2098 10.4768 13.2921C10.3415 12.9601 9.89105 11.6258 10.6049 9.81854C10.6049 9.81854 11.7072 9.46562 14.2146 11.1641C15.2613 10.8732 16.3845 10.7274 17.5004 10.7226C18.6147 10.7274 19.7379 10.8732 20.7862 11.1641C23.292 9.46562 24.3918 9.81854 24.3918 9.81854C25.1081 11.6258 24.6577 12.9601 24.5224 13.2921C25.3636 14.2098 25.872 15.3813 25.872 16.8139C25.872 21.8562 22.8029 22.9657 19.8789 23.2904C20.3503 23.6957 20.7701 24.4966 20.7701 25.7213C20.7701 27.4754 20.754 28.8911 20.754 29.3213C20.754 29.6726 20.99 30.0811 21.6564 29.953C26.8679 28.2134 30.625 23.2977 30.625 17.5004C30.625 10.2512 24.748 4.375 17.4988 4.375Z" fill="black"/>
</svg>
