<svg width="35" height="35" viewBox="0 0 35 35" fill="none" xmlns="http://www.w3.org/2000/svg">
<path d="M17.5005 4.77274C14.0441 4.77274 13.6103 4.78785 12.2528 4.84963C10.8979 4.91168 9.97311 5.12618 9.16389 5.44092C8.32683 5.76599 7.61678 6.20084 6.90937 6.90853C6.20144 7.61595 5.76661 8.32603 5.44048 9.16285C5.12496 9.97236 4.91019 10.8975 4.84921 12.2519C4.78849 13.6094 4.77258 14.0435 4.77258 17.5C4.77258 20.9565 4.78796 21.389 4.84947 22.7466C4.91178 24.1015 5.12628 25.0263 5.44074 25.8356C5.76608 26.6727 6.20091 27.3827 6.90858 28.0902C7.61572 28.7981 8.32577 29.234 9.1623 29.5591C9.97205 29.8738 10.8971 30.0883 12.2518 30.1504C13.6093 30.2122 14.0428 30.2273 17.4989 30.2273C20.9556 30.2273 21.3881 30.2122 22.7456 30.1504C24.1005 30.0883 25.0264 29.8738 25.8361 29.5591C26.6729 29.234 27.3819 28.7981 28.089 28.0902C28.797 27.3827 29.2318 26.6727 29.5579 25.8358C29.8708 25.0263 30.0856 24.1012 30.1492 22.7468C30.2102 21.3892 30.2261 20.9565 30.2261 17.5C30.2261 14.0435 30.2102 13.6097 30.1492 12.2521C30.0856 10.8972 29.8708 9.97236 29.5579 9.16311C29.2318 8.32603 28.797 7.61595 28.089 6.90853C27.3811 6.20058 26.6732 5.76573 25.8353 5.44092C25.024 5.12618 24.0986 4.91168 22.7437 4.84963C21.3862 4.78785 20.954 4.77274 17.4966 4.77274H17.5005ZM16.3588 7.0663C16.6977 7.06577 17.0758 7.0663 17.5005 7.0663C20.8986 7.0663 21.3014 7.07849 22.6433 7.13948C23.8841 7.19622 24.5576 7.40357 25.0062 7.57777C25.6001 7.80845 26.0236 8.08421 26.4687 8.52967C26.9142 8.97512 27.1899 9.39936 27.4211 9.9933C27.5953 10.4414 27.8029 11.1149 27.8594 12.3558C27.9204 13.6975 27.9337 14.1005 27.9337 17.4971C27.9337 20.8937 27.9204 21.2967 27.8594 22.6384C27.8027 23.8793 27.5953 24.5528 27.4211 25.0009C27.1905 25.5948 26.9142 26.0177 26.4687 26.4629C26.0233 26.9084 25.6004 27.1841 25.0062 27.4148C24.5581 27.5898 23.8841 27.7966 22.6433 27.8534C21.3016 27.9144 20.8986 27.9276 17.5005 27.9276C14.1022 27.9276 13.6994 27.9144 12.3578 27.8534C11.1169 27.7961 10.4435 27.5888 9.99458 27.4145C9.40066 27.1839 8.97643 26.9081 8.53099 26.4627C8.08555 26.0172 7.8098 25.594 7.5786 24.9998C7.4044 24.5517 7.19679 23.8782 7.14031 22.6373C7.07933 21.2956 7.06713 20.8926 7.06713 17.4939C7.06713 14.0952 7.07933 13.6943 7.14031 12.3526C7.19706 11.1117 7.4044 10.4382 7.5786 9.98959C7.80927 9.39565 8.08555 8.97141 8.53099 8.52595C8.97643 8.0805 9.40066 7.80474 9.99458 7.57353C10.4432 7.39853 11.1169 7.19171 12.3578 7.13471C13.5319 7.08167 13.9868 7.06577 16.3588 7.06311V7.0663ZM24.294 9.17955C23.4509 9.17955 22.7668 9.86285 22.7668 10.7063C22.7668 11.5495 23.4509 12.2336 24.294 12.2336C25.1372 12.2336 25.8213 11.5495 25.8213 10.7063C25.8213 9.86311 25.1372 9.17902 24.294 9.17902V9.17955ZM17.5005 10.964C13.8911 10.964 10.9647 13.8905 10.9647 17.5C10.9647 21.1095 13.8911 24.0347 17.5005 24.0347C21.1099 24.0347 24.0353 21.1095 24.0353 17.5C24.0353 13.8905 21.1097 10.964 17.5003 10.964H17.5005ZM17.5005 13.2576C19.8433 13.2576 21.7428 15.1569 21.7428 17.5C21.7428 19.8429 19.8433 21.7424 17.5005 21.7424C15.1575 21.7424 13.2582 19.8429 13.2582 17.5C13.2582 15.1569 15.1575 13.2576 17.5005 13.2576Z" fill="black"/>
</svg>
