<svg width="35" height="35" viewBox="0 0 35 35" fill="none" xmlns="http://www.w3.org/2000/svg">
<path fill-rule="evenodd" clip-rule="evenodd" d="M6.86388 5.10422C5.89202 5.10422 5.10416 5.89207 5.10416 6.86394V28.1361C5.10416 29.108 5.89202 29.8958 6.86388 29.8958H28.1361C29.108 29.8958 29.8958 29.108 29.8958 28.1361V6.86394C29.8958 5.89207 29.108 5.10422 28.1361 5.10422H6.86388ZM10.6688 12.8033C11.8565 12.8033 12.8194 11.8404 12.8194 10.6526C12.8194 9.46483 11.8565 8.50194 10.6688 8.50194C9.48097 8.50194 8.51808 9.46483 8.51808 10.6526C8.51808 11.8404 9.48097 12.8033 10.6688 12.8033ZM14.7891 14.3927H18.3534V16.0255C18.3534 16.0255 19.3207 14.0911 21.9524 14.0911C24.3 14.0911 26.2447 15.2475 26.2447 18.7726V26.2059H22.551V19.6733C22.551 17.5939 21.4409 17.3652 20.5949 17.3652C18.8392 17.3652 18.5387 18.8795 18.5387 19.9446V26.2059H14.7891V14.3927ZM12.5436 14.3927H8.79396V26.206H12.5436V14.3927Z" fill="black"/>
</svg>
