<svg width="36" height="35" viewBox="0 0 36 35" fill="none" xmlns="http://www.w3.org/2000/svg">
<path d="M18.3131 22.6042C21.531 22.6042 24.1373 19.9937 24.1373 16.7708V8.75C24.1373 5.52708 21.531 2.91666 18.3131 2.91666C15.0952 2.91666 12.4889 5.52708 12.4889 8.75V16.7708C12.4889 19.9937 15.0952 22.6042 18.3131 22.6042Z" stroke="#292D32" stroke-width="1.5" stroke-linecap="round" stroke-linejoin="round"/>
<path d="M7.17426 14.0729V16.5521C7.17426 22.7062 12.1685 27.7083 18.313 27.7083C24.4576 27.7083 29.4518 22.7062 29.4518 16.5521V14.0729" stroke="#292D32" stroke-width="1.5" stroke-linecap="round" stroke-linejoin="round"/>
<path d="M16.2892 9.37708C17.5996 8.89583 19.0266 8.89583 20.337 9.37708" stroke="#292D32" stroke-width="1.5" stroke-linecap="round" stroke-linejoin="round"/>
<path d="M17.1483 12.4688C17.92 12.2646 18.7208 12.2646 19.4925 12.4688" stroke="#292D32" stroke-width="1.5" stroke-linecap="round" stroke-linejoin="round"/>
<path d="M18.313 27.7083V32.0833" stroke="#292D32" stroke-width="1.5" stroke-linecap="round" stroke-linejoin="round"/>
</svg>
