<svg width="19" height="19" viewBox="0 0 19 19" fill="none" xmlns="http://www.w3.org/2000/svg">
<path d="M5.9375 6.60248H11.7958C12.5004 6.60248 13.0625 7.17246 13.0625 7.86913V9.27039" stroke="#292D32" stroke-width="1.5" stroke-miterlimit="10" stroke-linecap="round" stroke-linejoin="round"/>
<path d="M7.27542 5.27246L5.9375 6.6025L7.27542 7.94042" stroke="#292D32" stroke-width="1.5" stroke-miterlimit="10" stroke-linecap="round" stroke-linejoin="round"/>
<path d="M13.0625 12.3975H7.20417C6.49959 12.3975 5.9375 11.8275 5.9375 11.1308V9.72955" stroke="#292D32" stroke-width="1.5" stroke-miterlimit="10" stroke-linecap="round" stroke-linejoin="round"/>
<path d="M11.7246 13.7275L13.0625 12.3975L11.7246 11.0596" stroke="#292D32" stroke-width="1.5" stroke-miterlimit="10" stroke-linecap="round" stroke-linejoin="round"/>
<path d="M9.49998 17.4166C13.8722 17.4166 17.4166 13.8722 17.4166 9.49998C17.4166 5.12773 13.8722 1.58331 9.49998 1.58331C5.12773 1.58331 1.58331 5.12773 1.58331 9.49998C1.58331 13.8722 5.12773 17.4166 9.49998 17.4166Z" stroke="#292D32" stroke-width="1.5" stroke-miterlimit="10" stroke-linecap="round" stroke-linejoin="round"/>
</svg>
