<svg width="28" height="28" viewBox="0 0 28 28" fill="none" xmlns="http://www.w3.org/2000/svg">
<path d="M23.2166 15.75H4.78331C3.03331 15.75 2.33331 16.4967 2.33331 18.3517V23.065C2.33331 24.92 3.03331 25.6667 4.78331 25.6667H23.2166C24.9666 25.6667 25.6666 24.92 25.6666 23.065V18.3517C25.6666 16.4967 24.9666 15.75 23.2166 15.75Z" stroke="#292D32" stroke-width="1.5" stroke-linecap="round" stroke-linejoin="round"/>
<path d="M23.2166 2.33334H4.78331C3.03331 2.33334 2.33331 3.08001 2.33331 4.93501V9.64834C2.33331 11.5033 3.03331 12.25 4.78331 12.25H23.2166C24.9666 12.25 25.6666 11.5033 25.6666 9.64834V4.93501C25.6666 3.08001 24.9666 2.33334 23.2166 2.33334Z" stroke="#292D32" stroke-width="1.5" stroke-linecap="round" stroke-linejoin="round"/>
</svg>
